# xmcd
#
# Track frame offsets: 
#        150
#        22749
#        48747
#        86234
#        98265
#        121499
#        143877
#        157462
#        172103
#        194031
#        217228
#        238020
#        265448
#        277710
#        300329
#
# Disc length: 4239 seconds
#
# Revision: 2
# Processed by: cddbd v1.5.2PL0 Copyright (c) Steve Scherf et al.
# Submitted via: ExactAudioCopy v0.95b3
#
DISCID=dd108d0f
DTITLE=Various Artist - Essential Chill Tonic [CD1]
DYEAR=2003
DGENRE=Blues
TTITLE0=Afterlife Feat. Rood Chakra - Rood Beatz
TTITLE1=Banda Sonora - Guitarra G (Afterlife Mix)
TTITLE2=Alex Reece - Jazz Master
TTITLE3=Hairy Diamond - Givin Up
TTITLE4=Afterlife - The world Is A Ghetto
TTITLE5=FreakPower - Turn on, Tune in, Cop Out
TTITLE6=Dionne Warwick - Anyone Who Had A Heart
TTITLE7=Pilote - Turtle (Bonobo Remix)
TTITLE8=Orbital - Funny Break
TTITLE9=Weekend Players - Subway
TTITLE10=Bonobo - Kota
TTITLE11=David Holmes - Gritty Shaker
TTITLE12=Roy Orbison - Crying
TTITLE13=Endorphin - Underwater Jungle
TTITLE14=PJ Harvey - The Mess We're In
EXTD=
EXTT0=
EXTT1=
EXTT2=
EXTT3=
EXTT4=
EXTT5=
EXTT6=
EXTT7=
EXTT8=
EXTT9=
EXTT10=
EXTT11=
EXTT12=
EXTT13=
EXTT14=
PLAYORDER=
